<?xml version="1.0" encoding="UTF-8"?>
<svg width="60px" height="65px" viewBox="0 0 60 65" version="1.1" xmlns="http://www.w3.org/2000/svg" xmlns:xlink="http://www.w3.org/1999/xlink">
    <title>collect</title>
    <defs>
        <polygon id="path-1" points="0 65 60 65 60 0 0 0"></polygon>
    </defs>
    <g id="页面-1" stroke="none" stroke-width="1" fill="none" fill-rule="evenodd">
        <g id="设计器-我的上传-没有图案" transform="translate(-185.000000, -639.000000)">
            <g id="collect" transform="translate(185.000000, 639.000000)">
                <path d="M36.7494149,49.3739601 L0.0209930732,49.3739601 L0.0209930732,24.2345267 C0.0209930732,22.3814544 1.53164328,20.8786839 3.39548775,20.8786839 L33.3749202,20.8786839 C35.2387647,20.8786839 36.7494149,22.3814544 36.7494149,24.2345267 L36.7494149,49.3739601 Z" id="Fill-1" fill="#DFE6F1"></path>
                <mask id="mask-2" fill="white">
                    <use xlink:href="#path-1"></use>
                </mask>
                <g id="Clip-4"></g>
                <polygon id="Fill-3" fill="#EEF2F8" mask="url(#mask-2)" points="0 33.2640808 7.02322319 33.2640808 7.02322319 24.0951113 0 24.0951113"></polygon>
                <path d="M-9.45633929e-05,24.0950173 L-9.45633929e-05,24.0950173 C-9.45633929e-05,22.3190584 1.4481438,20.8788249 3.23397347,20.8788249 L34.4545505,16.7781797 C36.240853,16.7781797 36.6871922,22.3190584 36.6871922,24.0950173 C36.6871922,25.8709761 35.2389538,27.3112097 33.4526513,27.3112097 L3.23397347,27.3112097 C1.4481438,27.3112097 -9.45633929e-05,25.8709761 -9.45633929e-05,24.0950173" id="Fill-5" fill="#DFE6F1" mask="url(#mask-2)"></path>
                <path d="M48.7928668,45.7602107 L12.7296984,41.8777398 C10.7145525,41.660976 9.25827627,39.8610368 9.47624489,37.8570292 L13.2427048,3.25662987 C13.4606734,1.25309249 15.2710896,-0.195134478 17.2857627,0.0216293639 L53.348931,3.90362997 C55.3636041,4.12039381 56.8203532,5.92080325 56.6023846,7.92434063 L52.8359246,42.5247399 C52.617956,44.5287475 50.8075399,45.9769745 48.7928668,45.7602107" id="Fill-6" fill="#EEF2F8" mask="url(#mask-2)"></path>
                <path d="M50.5910842,56.3351828 L12.3075674,59.4328839 C10.0191333,59.6181441 8.01297095,57.9235304 7.82715388,55.6477452 L4.38788328,13.6171892 C4.20159339,11.3418742 5.90609855,9.34680045 8.19405984,9.16154024 L46.4780495,6.06383918 C48.7664836,5.87857897 50.7721731,7.57319261 50.958463,9.84897785 L54.3972608,51.8790636 C54.5835507,54.1548489 52.8795184,56.1499226 50.5910842,56.3351828" id="Fill-7" fill="#FFFFFF" mask="url(#mask-2)"></path>
                <path d="M33.9337426,27.8860335 C33.682204,27.9325837 33.4278284,27.9165967 33.1753442,27.8394834 L29.9431674,26.840771 C29.6925744,26.7655384 29.4207047,26.8158502 29.2136108,26.9752492 L26.5535426,29.0577808 C25.9658311,29.5101166 25.1421839,29.5007125 24.5658201,29.0342706 C24.2050607,28.7427444 23.99513,28.3054551 23.9946572,27.8427748 L23.9506852,24.4765875 C23.9469027,24.2151543 23.8140411,23.9725293 23.5951268,23.8277066 L20.7818659,21.955356 C20.2802071,21.6233923 20.0130655,21.0356378 20.0939172,20.4417707 C20.1705136,19.8474334 20.5818643,19.3494878 21.1530272,19.1590554 L24.359199,18.0775872 C24.6079008,17.9929506 24.798446,17.7926438 24.8693686,17.5410849 L25.790416,14.3013824 C25.9559019,13.7220916 26.4282461,13.2937362 27.0249411,13.1837085 C27.6211633,13.0741511 28.2169127,13.3059615 28.5800361,13.7883903 L30.605584,16.4859481 C30.7620864,16.6951887 31.0122066,16.8146204 31.2741472,16.8052164 L34.6590438,16.6744998 C35.260467,16.649579 35.823592,16.9679068 36.1091734,17.4954752 C36.3975918,18.021633 36.3592936,18.6653417 36.0103547,19.1538832 L34.0576206,21.9031634 C33.9044279,22.1161656 33.8675482,22.3902943 33.9588019,22.6357405 L35.1290239,25.7950383 C35.2930914,26.23797 35.2562116,26.704412 35.0231129,27.1106678 C34.7933238,27.5169237 34.3942663,27.8004565 33.9337426,27.8860335" id="Fill-8" fill="#2858F8" mask="url(#mask-2)"></path>
                <path d="M0.0208985098,27.3658003 L55.7901323,27.3658003 C58.1149733,27.3658003 59.9996217,29.2400317 59.9996217,31.5520226 L59.9996217,60.8137307 C59.9996217,63.1257216 58.1149733,64.999953 55.7901323,64.999953 L4.23038795,64.999953 C1.90554693,64.999953 0.0208985098,63.1257216 0.0208985098,60.8137307 L0.0208985098,27.3658003 Z" id="Fill-9" fill="#EEF2F8" mask="url(#mask-2)"></path>
                <path d="M38.7203524,49.6412238 L23.2805144,49.6412238 C21.9065083,49.6412238 20.7930244,48.5338944 20.7930244,47.1674829 C20.7930244,45.8015415 21.9065083,44.6942122 23.2805144,44.6942122 L38.7203524,44.6942122 C40.0938857,44.6942122 41.2078425,45.8015415 41.2078425,47.1674829 C41.2078425,48.5338944 40.0938857,49.6412238 38.7203524,49.6412238" id="Fill-10" fill="#DFE6F1" mask="url(#mask-2)"></path>
            </g>
        </g>
    </g>
</svg>